<?xml version="1.0" encoding="UTF-8" standalone="no"?>
<!-- Created with Inkscape (http://www.inkscape.org/) -->

<svg
   xmlns:dc="http://purl.org/dc/elements/1.1/"
   xmlns:cc="http://creativecommons.org/ns#"
   xmlns:rdf="http://www.w3.org/1999/02/22-rdf-syntax-ns#"
   xmlns:svg="http://www.w3.org/2000/svg"
   xmlns="http://www.w3.org/2000/svg"
   xmlns:sodipodi="http://sodipodi.sourceforge.net/DTD/sodipodi-0.dtd"
   xmlns:inkscape="http://www.inkscape.org/namespaces/inkscape"
   width="256"
   height="256"
   viewBox="0 0 256 256"
   id="svg4458"
   version="1.1"
   inkscape:version="0.92.0 r"
   sodipodi:docname="lime.svg">
  <defs
     id="defs4460" />
  <sodipodi:namedview
     id="base"
     pagecolor="#ffffff"
     bordercolor="#666666"
     borderopacity="1.0"
     inkscape:pageopacity="0.0"
     inkscape:pageshadow="2"
     inkscape:zoom="0.7"
     inkscape:cx="-370.2882"
     inkscape:cy="-30.396261"
     inkscape:document-units="px"
     inkscape:current-layer="layer1"
     showgrid="false"
     units="px"
     inkscape:window-width="1366"
     inkscape:window-height="703"
     inkscape:window-x="0"
     inkscape:window-y="0"
     inkscape:window-maximized="1" />
  <metadata
     id="metadata4463">
    <rdf:RDF>
      <cc:Work
         rdf:about="">
        <dc:format>image/svg+xml</dc:format>
        <dc:type
           rdf:resource="http://purl.org/dc/dcmitype/StillImage" />
        <dc:title />
      </cc:Work>
    </rdf:RDF>
  </metadata>
  <g
     inkscape:label="Layer 1"
     inkscape:groupmode="layer"
     id="layer1"
     transform="translate(0,-796.36216)">
    <circle
       style="fill:#ab294e;fill-opacity:1;stroke-width:0;stroke-miterlimit:4;stroke-dasharray:none"
       id="path4144"
       cx="128.57143"
       cy="925.21936"
       r="124.28571" />
    <path
       style="fill:#f3f3f3;fill-opacity:1;stroke-width:0;stroke-miterlimit:4;stroke-dasharray:none"
       d="m 52.960408,999.19048 c 0,-2.10859 6.66215,-14.19391 12.89202,-23.38651 3.44285,-5.08017 11.62017,-14.83921 18.17181,-21.68675 12.092813,-12.63897 20.697152,-24.69785 25.519222,-35.76489 3.56476,-8.18139 3.65906,-27.24087 0.17516,-35.39978 -1.42011,-3.32573 -2.23956,-6.38925 -1.82099,-6.80782 0.62535,-0.62535 38.19238,4.05838 39.0426,4.86769 0.14415,0.13722 -3.1834,7.21847 -7.39455,15.73611 -6.95927,14.07607 -16.55743,44.98088 -14.583,46.95532 0.42345,0.42346 3.56571,-0.3283 6.98279,-1.67057 l 6.21287,-2.44048 0,5.76666 0,5.76667 13.55421,-3.48743 c 21.72913,-5.59078 48.2766,-4.16609 73.96729,3.96952 l 9.29432,2.94328 -24.78485,0.1682 c -14.78988,0.10036 -28.95176,1.05135 -35.11767,2.35818 -12.40011,2.62813 -29.96354,10.93997 -41.36308,19.57495 -4.57733,3.46725 -8.84983,5.72732 -9.49445,5.02237 -0.64463,-0.70494 -1.98899,-3.83999 -2.98747,-6.96676 -2.77869,-8.70156 -4.55033,-9.46748 -14.21094,-6.14375 -15.563509,5.35464 -40.369752,19.37674 -50.569922,28.58542 -1.91696,1.73062 -3.48537,2.64877 -3.48537,2.04037 z"
       id="path4147"
       inkscape:connector-curvature="0" />
    <path
       style="fill:#f3f3f3;fill-opacity:1;stroke-width:0;stroke-miterlimit:4;stroke-dasharray:none"
       d="m 71.465058,863.63635 c -3.78771,-2.44793 -9.67505,-7.41683 -13.08297,-11.042 l -6.19621,-6.59123 14.49439,0.96802 c 16.75763,1.11917 21.21836,2.84713 26.110443,10.11442 6.0227,8.94688 5.00524,11.00156 -5.447863,11.00156 -7.27126,0 -10.30831,-0.85133 -15.87779,-4.45077 z"
       id="path4149"
       inkscape:connector-curvature="0" />
  </g>
</svg>
