<?xml version="1.0" encoding="UTF-8" standalone="no"?>
<!-- Created with Inkscape (http://www.inkscape.org/) -->

<svg
   xmlns:dc="http://purl.org/dc/elements/1.1/"
   xmlns:cc="http://creativecommons.org/ns#"
   xmlns:rdf="http://www.w3.org/1999/02/22-rdf-syntax-ns#"
   xmlns:svg="http://www.w3.org/2000/svg"
   xmlns="http://www.w3.org/2000/svg"
   xmlns:sodipodi="http://sodipodi.sourceforge.net/DTD/sodipodi-0.dtd"
   xmlns:inkscape="http://www.inkscape.org/namespaces/inkscape"
   width="256"
   height="256"
   viewBox="0 0 256 256"
   id="svg4458"
   version="1.1"
   inkscape:version="0.92.0 r"
   sodipodi:docname="mail.svg">
  <defs
     id="defs4460" />
  <sodipodi:namedview
     id="base"
     pagecolor="#ffffff"
     bordercolor="#666666"
     borderopacity="1.0"
     inkscape:pageopacity="0.0"
     inkscape:pageshadow="2"
     inkscape:zoom="0.7"
     inkscape:cx="-12.009393"
     inkscape:cy="155.23232"
     inkscape:document-units="px"
     inkscape:current-layer="layer1"
     showgrid="false"
     units="px"
     inkscape:window-width="1366"
     inkscape:window-height="703"
     inkscape:window-x="0"
     inkscape:window-y="0"
     inkscape:window-maximized="1" />
  <metadata
     id="metadata4463">
    <rdf:RDF>
      <cc:Work
         rdf:about="">
        <dc:format>image/svg+xml</dc:format>
        <dc:type
           rdf:resource="http://purl.org/dc/dcmitype/StillImage" />
        <dc:title />
      </cc:Work>
    </rdf:RDF>
  </metadata>
  <g
     inkscape:label="Layer 1"
     inkscape:groupmode="layer"
     id="layer1"
     transform="translate(0,-796.36216)">
    <path
       style="fill:#ab294e;fill-opacity:1"
       d="m 121.12522,1052.2109 c -17.99626,-1.9476 -29.199545,-4.5845 -41.475082,-9.7616 C 32.601189,1022.6065 2.2740597,977.00621 2.2176862,926.02076 2.2031757,912.70855 3.7907295,901.93141 7.6606885,889.0762 13.959023,868.15426 26.028009,848.79414 42.336027,833.45271 c 28.018919,-26.35815 68.348163,-38.7145 105.942643,-32.4594 14.04128,2.33623 22.95546,5.17781 35.75205,11.39675 25.35049,12.3199 45.64624,32.61564 57.96614,57.96613 6.21893,12.79657 9.06051,21.71075 11.39674,35.75206 3.18292,19.13011 1.35155,41.12283 -4.99475,59.98081 -12.75026,37.88724 -43.72515,68.35354 -81.57546,80.23594 -13.61844,4.2753 -35.06136,7.0372 -45.69817,5.8859 z m 75.99733,-82.14792 c -1.54617,-1.41581 -37.30084,-35.16368 -38.00447,-35.87143 -0.26101,-0.26253 -2.17083,-2.06307 -4.24406,-4.00126 l -3.76957,-3.52396 -4.39317,2.81907 c -12.09378,7.76059 -25.77915,7.77985 -36.44802,0.0513 -2.06347,-1.49477 -4.08181,-2.59188 -4.48513,-2.43802 -0.6653,0.25378 -22.852838,21.17945 -39.864919,37.59767 l -6.788356,6.5514 69.661535,0.0145 c 58.30003,0.0122 69.44535,-0.18356 68.33616,-1.19919 l 0,0 z M 71.772914,952.18022 c 4.493246,-4.2803 13.149184,-12.42633 19.235365,-18.10228 l 11.065761,-10.31996 -3.85874,-3.62046 c -4.200713,-3.94131 -4.902847,-4.54741 -18.27282,-15.77307 -4.978129,-4.17973 -11.902259,-10.05869 -15.38694,-13.06433 -3.484682,-3.00565 -7.048569,-6.05782 -7.919748,-6.78256 -1.504745,-1.25186 -1.583951,0.80351 -1.583951,41.09882 l 0,42.4166 4.275716,-4.0352 c 2.351679,-2.21936 7.952074,-7.53725 12.445357,-11.81756 z m 129.907536,-27.12062 0,-41.69132 -9.27742,7.91654 c -5.10257,4.35409 -15.48878,13.21006 -23.08041,19.67995 -7.59167,6.46992 -13.80304,12.03478 -13.80304,12.36642 0,0.33162 6.61866,6.86271 14.70815,14.51353 8.08946,7.65083 18.17015,17.2801 22.40157,21.39839 4.23143,4.11828 7.99896,7.4923 8.37231,7.49783 0.37335,0.005 0.67884,-18.75111 0.67884,-41.68134 z m -60.95069,2.18954 c 4.60067,-2.40766 56.25914,-45.21131 56.37341,-46.7104 0.0282,-0.37335 -30.69957,-0.67883 -68.28449,-0.67883 -37.584872,0 -68.336154,0.33934 -68.336154,0.75408 0,0.41478 10.019102,9.27357 22.264741,19.68627 12.245594,10.41269 23.344583,19.88077 24.664363,21.04017 3.87153,3.40104 9.37125,6.71932 13.26102,8.00119 5.64344,1.8597 14.21346,0.96561 20.05711,-2.09248 z"
       id="path4290"
       inkscape:connector-curvature="0" />
  </g>
</svg>
