<?xml version="1.0" encoding="UTF-8" standalone="no"?>
<!-- Created with Inkscape (http://www.inkscape.org/) -->

<svg
   xmlns:dc="http://purl.org/dc/elements/1.1/"
   xmlns:cc="http://creativecommons.org/ns#"
   xmlns:rdf="http://www.w3.org/1999/02/22-rdf-syntax-ns#"
   xmlns:svg="http://www.w3.org/2000/svg"
   xmlns="http://www.w3.org/2000/svg"
   xmlns:sodipodi="http://sodipodi.sourceforge.net/DTD/sodipodi-0.dtd"
   xmlns:inkscape="http://www.inkscape.org/namespaces/inkscape"
   width="256"
   height="256"
   viewBox="0 0 256 256"
   id="svg4458"
   version="1.1"
   inkscape:version="0.92.0 r"
   sodipodi:docname="me.svg">
  <defs
     id="defs4460" />
  <sodipodi:namedview
     id="base"
     pagecolor="#ffffff"
     bordercolor="#666666"
     borderopacity="1.0"
     inkscape:pageopacity="0.0"
     inkscape:pageshadow="2"
     inkscape:zoom="0.7"
     inkscape:cx="-423.14534"
     inkscape:cy="26.746598"
     inkscape:document-units="px"
     inkscape:current-layer="layer1"
     showgrid="false"
     units="px"
     inkscape:window-width="1366"
     inkscape:window-height="703"
     inkscape:window-x="0"
     inkscape:window-y="0"
     inkscape:window-maximized="1" />
  <metadata
     id="metadata4463">
    <rdf:RDF>
      <cc:Work
         rdf:about="">
        <dc:format>image/svg+xml</dc:format>
        <dc:type
           rdf:resource="http://purl.org/dc/dcmitype/StillImage" />
        <dc:title />
      </cc:Work>
    </rdf:RDF>
  </metadata>
  <g
     inkscape:label="Layer 1"
     inkscape:groupmode="layer"
     id="layer1"
     transform="translate(0,-796.36216)">
    <path
       style="fill:#ab294e;fill-opacity:1;stroke-width:3.70000005;stroke-miterlimit:4;stroke-dasharray:none"
       d="m 127.38724,801.47893 c -19.88756,0.23847 -40.058879,5.57901 -59.158095,15.7769 -19.76101,10.55119 -38.490197,29.28047 -49.041451,49.04145 -13.6355005,25.53744 -18.49649156,52.44298 -14.2984421,79.18019 1.7065913,10.86991 4.8258472,22.96829 6.2937951,24.43625 0.575623,0.57555 1.049327,1.71138 1.056086,2.53444 0.01092,1.54554 10.247797,22.36469 11.426075,23.23236 0.364487,0.26845 1.451796,1.70924 2.407721,3.2103 2.810392,4.41278 5.432829,7.41818 14.129547,16.11488 11.320845,11.321 17.375187,15.9722 28.491316,21.9229 17.446829,9.3395 31.321108,13.402 49.738428,14.6152 24.58935,1.6198 43.82431,-1.767 63.72009,-11.2571 7.19662,-3.4326 16.81839,-9.0299 17.21309,-10.011 0.17701,-0.4401 0.93734,-0.8026 1.68962,-0.8026 0.7523,0 1.36877,-0.3199 1.37283,-0.7181 0.004,-0.3983 1.61067,-1.8193 3.56933,-3.1469 4.60053,-3.1182 18.40345,-16.9212 21.52164,-21.5217 1.32756,-1.9587 2.74866,-3.5625 3.14693,-3.5693 0.39827,0 0.71809,-0.66075 0.71809,-1.45731 0,-0.79657 0.34096,-1.45728 0.73922,-1.45728 1.52784,-0.0128 11.60959,-19.45355 15.01657,-28.95602 4.80275,-13.3955 6.50128,-24.09707 6.54731,-40.97348 0.0474,-17.39701 -0.8506,-23.76011 -5.42793,-38.20671 -3.42406,-10.80672 -4.57566,-13.56801 -9.4408,-22.70437 -5.88857,-11.05825 -10.56052,-17.12898 -21.9018,-28.47023 -8.69671,-8.69672 -11.70201,-11.31919 -16.11483,-14.12951 -1.50107,-0.95599 -2.94189,-2.04324 -3.21029,-2.40772 -0.77989,-1.05914 -21.58883,-11.43574 -22.95782,-11.44724 -0.68247,-0.006 -2.20314,-0.61069 -3.37925,-1.3517 -2.63888,-1.66252 -12.33762,-4.07254 -24.11945,-5.99818 -6.51178,-1.06428 -13.11834,-1.55791 -19.74753,-1.47842 z m -4.32967,96.52 c 3.82658,-0.25632 12.8132,2.90061 14.95322,5.95593 0.74197,1.05934 1.63467,1.63898 1.9853,1.28835 0.35065,-0.35064 0.63362,0.28561 0.63362,1.43618 0,1.15057 0.44051,2.11203 0.97153,2.11203 0.53103,0 0.97154,1.48866 0.97154,3.3159 0,1.82729 0.41938,3.57907 0.95041,3.90727 0.59525,0.36793 0.97154,8.56837 0.97154,21.37379 0,16.71352 -0.26293,21.04537 -1.37283,22.15525 -1.89666,1.89663 -15.30728,1.93144 -16.87515,0.0423 -0.77089,-0.9289 -1.08397,-7.53618 -1.01378,-21.39492 0.0839,-16.5795 -0.1583,-20.26486 -1.35171,-21.45827 -1.88508,-1.88508 -8.19693,-2.20513 -11.25713,-0.57025 -1.32758,0.7093 -1.99932,1.28091 -1.49959,1.28834 0.49985,0.008 0.17418,0.56123 -0.71802,1.22499 -1.41477,1.05243 -1.63914,3.79885 -1.85859,21.47939 l -0.25345,20.27553 -7.58224,0.29569 c -4.753186,0.17802 -8.082436,-0.13822 -8.933942,-0.84481 -1.082845,-0.89876 -1.366906,-5.13925 -1.393873,-21.03587 -0.02379,-13.81717 -0.390303,-20.54659 -1.203893,-21.94405 -1.795669,-3.08452 -8.280732,-2.83282 -12.144168,0.46466 l -2.978003,2.53444 -0.274598,20.27553 -0.253444,20.25441 -7.772288,0.27457 c -4.272597,0.15254 -8.074259,-0.0276 -8.448141,-0.40129 -0.958627,-0.95869 -0.816765,-58.50343 0.147877,-60.02403 0.566768,-0.89348 2.972393,-1.15391 8.427053,-0.95041 7.58866,0.28317 7.644688,0.29393 8.1313,3.08356 0.439642,2.52019 0.6132,2.65164 1.795196,1.22498 0.724108,-0.87374 1.704564,-1.34704 2.17543,-1.05601 0.470866,0.29102 0.844814,0.0555 0.844814,-0.50689 0,-0.56238 0.84076,-1.01378 1.858591,-1.01378 1.017765,0 2.010995,-0.45722 2.196517,-1.01377 0.459375,-1.37827 11.404984,-2.47267 11.404984,-1.14051 0,0.55596 0.859749,0.7846 1.921986,0.50689 1.079539,-0.28237 1.942999,-0.0325 1.943069,0.57025 -7e-5,0.593 0.79427,1.07714 1.77411,1.07714 1.895573,0 4.984353,2.84003 4.984403,4.58311 0,1.61922 2.60541,0.83333 5.11106,-1.52066 1.24566,-1.17016 2.55577,-1.81618 2.91465,-1.4573 0.35885,0.35888 0.65473,0.10179 0.65473,-0.54913 0,-0.65098 0.39884,-0.93538 0.88705,-0.63361 0.48822,0.3017 1.59697,-0.13966 2.44996,-0.99266 0.85299,-0.85298 2.19508,-1.31419 2.97797,-1.01377 0.78289,0.30048 1.41507,0.13422 1.41507,-0.38017 0,-0.6813 0.66042,-1.02649 1.73186,-1.09826 z m 59.5805,0.16895 c 2.38962,0 4.32969,0.3846 4.32969,0.86594 0,0.48134 0.83535,0.66339 1.83746,0.40129 1.00213,-0.26203 2.1143,-0.007 2.47108,0.57025 0.35678,0.57724 1.53743,1.05601 2.61892,1.05601 1.08149,0 3.33048,0.94163 5.00553,2.09092 8.52241,5.84739 13.34761,14.85896 13.53814,25.28106 l 0.12673,6.90636 -21.01475,0.25344 c -20.61659,0.2552 -21.00448,0.30025 -20.00098,2.1754 0.56282,1.05162 0.76733,1.90082 0.46465,1.90082 -0.30268,0 0.93123,1.3215 2.74564,2.91461 3.02742,2.65806 3.88405,2.89417 10.41235,2.89349 6.19405,-6.8e-4 7.48395,-0.32815 9.92655,-2.42884 1.54292,-1.3269 3.53895,-2.40772 4.43528,-2.40772 0.89634,0 3.39941,2.10764 5.57578,4.68872 3.70984,4.39966 3.88041,4.82777 2.51332,6.77963 -0.80202,1.14502 -1.82083,1.85538 -2.25989,1.58403 -0.43904,-0.27135 -1.05543,0.1866 -1.37282,1.01378 -0.31741,0.82716 -1.02812,1.23866 -1.5629,0.90817 -0.53478,-0.33049 -0.97154,-0.18052 -0.97154,0.33792 0,1.28419 -8.27014,4.37118 -9.56752,3.56935 -0.57184,-0.35341 -1.05601,-0.18222 -1.05601,0.38016 0,1.02723 -12.51832,1.35329 -15.43898,0.40128 -4.42662,-1.4428 -8.70159,-3.6648 -8.70159,-4.51975 0,-0.53886 -0.27234,-0.69914 -0.61249,-0.35904 -0.84285,0.84285 -9.98992,-8.86562 -9.98992,-10.60242 0,-0.76378 -0.44051,-1.13076 -0.97154,-0.80257 -0.56328,0.34812 -0.97153,-0.62121 -0.97153,-2.34437 0,-1.6244 -0.37771,-2.95684 -0.84482,-2.95684 -0.46711,0 -0.90212,-4.24219 -0.97153,-9.41967 -0.0877,-6.53468 0.15672,-8.9677 0.82369,-7.96237 0.7564,1.14015 0.98096,0.88641 0.99266,-1.20386 0.008,-1.46031 -0.0391,-2.9348 -0.0844,-3.27366 -0.0453,-0.33887 0.31224,-0.87898 0.78146,-1.20386 0.4692,-0.32489 1.8781,-2.11204 3.14693,-3.97062 2.84184,-4.16284 7.68934,-8.7016 9.29295,-8.7016 0.65664,0 1.34365,-0.41362 1.52066,-0.92929 0.17701,-0.51567 1.1767,-1.08261 2.23876,-1.2461 1.06205,-0.16349 2.49996,-0.64722 3.18917,-1.07714 0.68921,-0.42997 1.89005,-0.5282 2.66116,-0.23232 0.77112,0.29589 1.39395,0.11306 1.39395,-0.40128 0,-0.51432 1.96117,-0.92931 4.35079,-0.92931 z m 0.54914,15.27002 c -6.52531,0.13045 -7.90667,0.58221 -9.16623,2.93573 -0.6266,1.17085 -1.44568,1.82801 -1.81635,1.45731 -0.37067,-0.37071 -0.68975,-0.0764 -0.69698,0.67584 -0.007,0.7523 -0.27116,2.35346 -0.59137,3.54823 -0.58207,2.17205 -0.58116,2.17539 12.08084,2.17539 6.96527,0 12.67222,-0.25226 12.67222,-0.57026 0,-0.31804 -0.69951,-2.04772 -1.5418,-3.82277 -2.11825,-4.46386 -5.61606,-6.50591 -10.94033,-6.39947 z"
       id="path3768"
       inkscape:connector-curvature="0" />
  </g>
</svg>
