<?xml version="1.0" encoding="UTF-8" standalone="no"?>
<!-- Created with Inkscape (http://www.inkscape.org/) -->

<svg
   xmlns:dc="http://purl.org/dc/elements/1.1/"
   xmlns:cc="http://creativecommons.org/ns#"
   xmlns:rdf="http://www.w3.org/1999/02/22-rdf-syntax-ns#"
   xmlns:svg="http://www.w3.org/2000/svg"
   xmlns="http://www.w3.org/2000/svg"
   xmlns:sodipodi="http://sodipodi.sourceforge.net/DTD/sodipodi-0.dtd"
   xmlns:inkscape="http://www.inkscape.org/namespaces/inkscape"
   width="256"
   height="256"
   viewBox="0 0 67.733332 67.733335"
   version="1.1"
   id="svg8"
   inkscape:version="0.92.0 r"
   sodipodi:docname="twit.svg">
  <defs
     id="defs2" />
  <sodipodi:namedview
     id="base"
     pagecolor="#ffffff"
     bordercolor="#666666"
     borderopacity="1.0"
     inkscape:pageopacity="0.0"
     inkscape:pageshadow="2"
     inkscape:zoom="1.979899"
     inkscape:cx="158.96456"
     inkscape:cy="157.75773"
     inkscape:document-units="mm"
     inkscape:current-layer="layer1"
     showgrid="false"
     units="px"
     inkscape:window-width="1366"
     inkscape:window-height="703"
     inkscape:window-x="0"
     inkscape:window-y="0"
     inkscape:window-maximized="1" />
  <metadata
     id="metadata5">
    <rdf:RDF>
      <cc:Work
         rdf:about="">
        <dc:format>image/svg+xml</dc:format>
        <dc:type
           rdf:resource="http://purl.org/dc/dcmitype/StillImage" />
        <dc:title></dc:title>
      </cc:Work>
    </rdf:RDF>
  </metadata>
  <g
     inkscape:label="Layer 1"
     inkscape:groupmode="layer"
     id="layer1"
     transform="translate(0,-229.26665)">
    <path
       style="fill:#ab294e;fill-opacity:1;stroke-width:0.42056382"
       d="M 27.141858,296.02791 C 14.58804,293.26565 4.8308131,284.03374 1.3959295,271.6681 0.35450978,267.91897 0.39206386,258.29018 1.4625234,254.59363 4.147636,245.3213 10.512149,237.54005 18.787255,233.41236 c 5.777701,-2.88194 10.879712,-3.91013 17.317816,-3.48998 8.81743,0.57542 16.057603,3.96667 22.065519,10.33539 8.636175,9.15479 11.398307,22.28895 7.209043,34.27953 -3.703128,10.59919 -13.133397,18.8521 -24.494025,21.43603 -3.563329,0.81045 -10.188861,0.83677 -13.743751,0.0545 z m 8.319727,-20.37545 c 3.098087,-1.20056 5.464281,-3.01163 7.924373,-6.06532 2.255888,-2.80019 3.561654,-5.9178 4.241146,-10.12604 0.392407,-2.43024 0.73635,-3.24771 1.878486,-4.46464 1.740932,-1.85497 1.755926,-2.2305 0.07429,-1.86115 l -1.323846,0.29076 0.903285,-1.26854 c 1.39182,-1.95464 1.138275,-2.27046 -1.110987,-1.38387 l -2.01426,0.79394 -1.665672,-1.00823 c -3.430175,-2.07623 -7.847251,-0.83529 -9.729972,2.73357 -0.5378,1.01946 -0.977824,2.48977 -0.977824,3.26739 0,1.32406 -0.07344,1.39758 -1.156544,1.15777 -4.228863,-0.93629 -7.21254,-2.41209 -10.069153,-4.98043 -1.180104,-1.06102 -2.252485,-1.92912 -2.383064,-1.92912 -0.130582,0 -0.445529,0.77285 -0.699882,1.71744 -0.501982,1.86425 -0.248032,3.84344 0.681605,5.31221 0.775711,1.22558 0.747297,1.38162 -0.251564,1.38162 -0.508195,0 -0.841128,0.28037 -0.841128,0.70835 0,1.37116 1.747872,4.29749 3.074357,5.14716 1.211869,0.77627 1.250084,0.86004 0.395295,0.86644 -0.520447,0.004 -0.946269,0.21443 -0.946269,0.46786 0,1.00558 1.855058,2.97542 3.671283,3.89846 l 1.917257,0.97438 -1.847999,0.88394 c -1.016404,0.48617 -3.03084,1.01385 -4.476527,1.1726 -1.445688,0.15875 -2.628524,0.42306 -2.628524,0.58736 0,0.38492 1.713205,1.19079 4.626201,2.17614 3.210049,1.08582 9.330361,0.86954 12.735646,-0.45005 z"
       id="path4498"
       inkscape:connector-curvature="0" />
  </g>
</svg>
